<mxfile host="app.diagrams.net" modified="2020-12-15T07:47:19.408Z" agent="5.0 (Windows)" etag="Tm7wnUs6zgMlvbqRxwOs" version="14.0.1" type="github">
  <diagram id="jJN2-YR1qqHn-e9BybVK" name="Page-1">
    <mxGraphModel dx="2814" dy="236" grid="1" gridSize="10" guides="1" tooltips="1" connect="1" arrows="1" fold="1" page="1" pageScale="1" pageWidth="827" pageHeight="1169" background="none" math="0" shadow="0">
      <root>
        <mxCell id="0" />
        <mxCell id="1" parent="0" />
        <mxCell id="fMAf0AQXnJGZOiMmoHYG-100" style="edgeStyle=orthogonalEdgeStyle;rounded=0;orthogonalLoop=1;jettySize=auto;html=1;entryX=0.5;entryY=0;entryDx=0;entryDy=0;fontFamily=Consolas;fontSize=10;" parent="1" source="fMAf0AQXnJGZOiMmoHYG-79" target="fMAf0AQXnJGZOiMmoHYG-84" edge="1">
          <mxGeometry relative="1" as="geometry" />
        </mxCell>
        <mxCell id="fMAf0AQXnJGZOiMmoHYG-79" value="Начало" style="rounded=1;whiteSpace=wrap;html=1;arcSize=50;fontFamily=Consolas;fontSize=10;" parent="1" vertex="1">
          <mxGeometry x="488" y="1212" width="120" height="40" as="geometry" />
        </mxCell>
        <mxCell id="fMAf0AQXnJGZOiMmoHYG-80" value="&lt;div style=&quot;font-size: 10px&quot;&gt;i := 0;&lt;/div&gt;&lt;div style=&quot;font-size: 10px&quot;&gt;i &amp;lt; _M&lt;br style=&quot;font-size: 10px&quot;&gt;&lt;/div&gt;" style="shape=hexagon;perimeter=hexagonPerimeter2;whiteSpace=wrap;html=1;fixedSize=1;rounded=1;fontFamily=Consolas;arcSize=0;fontSize=10;" parent="1" vertex="1">
          <mxGeometry x="488" y="1350" width="120" height="40" as="geometry" />
        </mxCell>
        <mxCell id="fMAf0AQXnJGZOiMmoHYG-81" style="edgeStyle=orthogonalEdgeStyle;rounded=0;orthogonalLoop=1;jettySize=auto;html=1;entryX=0.5;entryY=-0.026;entryDx=0;entryDy=0;fontFamily=Consolas;fontSize=10;exitX=0.503;exitY=1.019;exitDx=0;exitDy=0;exitPerimeter=0;entryPerimeter=0;" parent="1" source="fMAf0AQXnJGZOiMmoHYG-80" target="fMAf0AQXnJGZOiMmoHYG-101" edge="1">
          <mxGeometry x="430" y="1108" as="geometry">
            <mxPoint x="548" y="1408" as="targetPoint" />
          </mxGeometry>
        </mxCell>
        <mxCell id="fMAf0AQXnJGZOiMmoHYG-82" style="edgeStyle=orthogonalEdgeStyle;rounded=0;orthogonalLoop=1;jettySize=auto;html=1;fontFamily=Consolas;fontSize=10;entryX=0;entryY=0.5;entryDx=0;entryDy=0;exitX=0.5;exitY=1;exitDx=0;exitDy=0;" parent="1" source="s9nZQQE5in6NOD8knwnm-1" target="fMAf0AQXnJGZOiMmoHYG-101" edge="1">
          <mxGeometry x="430" y="1108" as="geometry">
            <mxPoint x="454" y="1370" as="targetPoint" />
            <Array as="points">
              <mxPoint x="547" y="1620" />
              <mxPoint x="470" y="1620" />
              <mxPoint x="470" y="1430" />
            </Array>
            <mxPoint x="548" y="1568" as="sourcePoint" />
          </mxGeometry>
        </mxCell>
        <mxCell id="fMAf0AQXnJGZOiMmoHYG-84" value="&lt;div style=&quot;font-size: 10px&quot;&gt;**_Array&lt;/div&gt;&lt;div style=&quot;font-size: 10px&quot;&gt;_M&lt;/div&gt;&lt;div style=&quot;font-size: 10px&quot;&gt;_N&lt;/div&gt;" style="shape=parallelogram;perimeter=parallelogramPerimeter;whiteSpace=wrap;html=1;fixedSize=1;rounded=1;fontFamily=Consolas;fontSize=10;arcSize=0;" parent="1" vertex="1">
          <mxGeometry x="488" y="1270" width="120" height="60" as="geometry" />
        </mxCell>
        <mxCell id="fMAf0AQXnJGZOiMmoHYG-86" style="edgeStyle=orthogonalEdgeStyle;rounded=0;orthogonalLoop=1;jettySize=auto;html=1;entryX=0.5;entryY=0;entryDx=0;entryDy=0;fontFamily=Consolas;fontSize=10;exitX=0.5;exitY=1;exitDx=0;exitDy=0;" parent="1" source="fMAf0AQXnJGZOiMmoHYG-84" target="fMAf0AQXnJGZOiMmoHYG-80" edge="1">
          <mxGeometry x="430" y="1190" as="geometry">
            <mxPoint x="548" y="1402" as="sourcePoint" />
          </mxGeometry>
        </mxCell>
        <mxCell id="fMAf0AQXnJGZOiMmoHYG-89" style="edgeStyle=orthogonalEdgeStyle;rounded=0;orthogonalLoop=1;jettySize=auto;html=1;fontFamily=Consolas;exitX=1;exitY=0.5;exitDx=0;exitDy=0;fontSize=10;entryX=0.5;entryY=0;entryDx=0;entryDy=0;" parent="1" source="fMAf0AQXnJGZOiMmoHYG-80" target="s9nZQQE5in6NOD8knwnm-6" edge="1">
          <mxGeometry x="430" y="1108" as="geometry">
            <mxPoint x="608" y="1660" as="targetPoint" />
            <Array as="points">
              <mxPoint x="640" y="1370" />
              <mxPoint x="640" y="1640" />
              <mxPoint x="547" y="1640" />
            </Array>
            <mxPoint x="608" y="1535" as="sourcePoint" />
          </mxGeometry>
        </mxCell>
        <mxCell id="fMAf0AQXnJGZOiMmoHYG-90" value="Конец" style="rounded=1;whiteSpace=wrap;html=1;arcSize=50;fontFamily=Consolas;fontSize=10;" parent="1" vertex="1">
          <mxGeometry x="487" y="1740" width="120" height="40" as="geometry" />
        </mxCell>
        <mxCell id="fMAf0AQXnJGZOiMmoHYG-91" value="&lt;div style=&quot;font-size: 10px&quot;&gt;PrintMatrix&lt;/div&gt;&lt;div style=&quot;font-size: 10px&quot;&gt;// Выводит массив в виде&lt;/div&gt;&lt;div style=&quot;font-size: 10px&quot;&gt;// прямоугольной матрицы&lt;/div&gt;&lt;div style=&quot;font-size: 10px&quot;&gt;// из _M строк, _N столбцов&lt;br&gt;&lt;/div&gt;" style="strokeWidth=2;html=1;shape=mxgraph.flowchart.annotation_2;align=left;labelPosition=right;pointerEvents=1;rounded=1;fontFamily=Consolas;fontSize=10;" parent="1" vertex="1">
          <mxGeometry x="620" y="1194" width="50" height="76" as="geometry" />
        </mxCell>
        <mxCell id="fMAf0AQXnJGZOiMmoHYG-92" value="" style="endArrow=none;dashed=1;html=1;fontFamily=Consolas;fontSize=10;" parent="1" edge="1">
          <mxGeometry x="430" y="1190" width="50" height="50" as="geometry">
            <mxPoint x="430" y="1190" as="sourcePoint" />
            <mxPoint x="810" y="1190" as="targetPoint" />
          </mxGeometry>
        </mxCell>
        <mxCell id="fMAf0AQXnJGZOiMmoHYG-93" value="" style="endArrow=none;dashed=1;html=1;fontFamily=Consolas;fontSize=10;" parent="1" edge="1">
          <mxGeometry x="430" y="1190" width="50" height="50" as="geometry">
            <mxPoint x="430" y="1790" as="sourcePoint" />
            <mxPoint x="430" y="1192" as="targetPoint" />
          </mxGeometry>
        </mxCell>
        <mxCell id="fMAf0AQXnJGZOiMmoHYG-94" value="" style="endArrow=none;dashed=1;html=1;fontFamily=Consolas;fontSize=10;" parent="1" edge="1">
          <mxGeometry x="430" y="1190" width="50" height="50" as="geometry">
            <mxPoint x="810" y="1790" as="sourcePoint" />
            <mxPoint x="810" y="1192" as="targetPoint" />
          </mxGeometry>
        </mxCell>
        <mxCell id="fMAf0AQXnJGZOiMmoHYG-95" value="" style="endArrow=none;dashed=1;html=1;fontFamily=Consolas;fontSize=10;" parent="1" edge="1">
          <mxGeometry x="429" y="1138" width="50" height="50" as="geometry">
            <mxPoint x="429" y="1790" as="sourcePoint" />
            <mxPoint x="809" y="1790" as="targetPoint" />
          </mxGeometry>
        </mxCell>
        <mxCell id="fMAf0AQXnJGZOiMmoHYG-96" style="edgeStyle=orthogonalEdgeStyle;rounded=0;orthogonalLoop=1;jettySize=auto;html=1;entryX=0.5;entryY=-0.011;entryDx=0;entryDy=0;entryPerimeter=0;fontFamily=Consolas;fontSize=10;" parent="1" edge="1">
          <mxGeometry x="430" y="1108" as="geometry">
            <mxPoint x="548.0285714285715" y="1448" as="sourcePoint" />
          </mxGeometry>
        </mxCell>
        <mxCell id="fMAf0AQXnJGZOiMmoHYG-99" style="edgeStyle=orthogonalEdgeStyle;rounded=0;orthogonalLoop=1;jettySize=auto;html=1;entryX=0.5;entryY=0;entryDx=0;entryDy=0;fontFamily=Consolas;fontSize=10;" parent="1" edge="1">
          <mxGeometry x="430" y="1108" as="geometry">
            <mxPoint x="548.0285714285715" y="1508" as="sourcePoint" />
          </mxGeometry>
        </mxCell>
        <mxCell id="fMAf0AQXnJGZOiMmoHYG-103" value="" style="edgeStyle=orthogonalEdgeStyle;rounded=0;orthogonalLoop=1;jettySize=auto;html=1;fontFamily=Consolas;fontSize=10;" parent="1" source="fMAf0AQXnJGZOiMmoHYG-101" target="fMAf0AQXnJGZOiMmoHYG-102" edge="1">
          <mxGeometry relative="1" as="geometry" />
        </mxCell>
        <mxCell id="s9nZQQE5in6NOD8knwnm-4" style="edgeStyle=orthogonalEdgeStyle;rounded=0;orthogonalLoop=1;jettySize=auto;html=1;fontFamily=Consolas;fontSize=10;entryX=0;entryY=0.5;entryDx=0;entryDy=0;" edge="1" parent="1" source="fMAf0AQXnJGZOiMmoHYG-101" target="fMAf0AQXnJGZOiMmoHYG-80">
          <mxGeometry relative="1" as="geometry">
            <mxPoint x="450" y="1370" as="targetPoint" />
            <Array as="points">
              <mxPoint x="620" y="1430" />
              <mxPoint x="620" y="1630" />
              <mxPoint x="460" y="1630" />
              <mxPoint x="460" y="1370" />
            </Array>
          </mxGeometry>
        </mxCell>
        <mxCell id="fMAf0AQXnJGZOiMmoHYG-101" value="&lt;div style=&quot;font-size: 10px&quot;&gt;j := 0;&lt;/div&gt;&lt;div style=&quot;font-size: 10px&quot;&gt;j &amp;lt; _N&lt;br style=&quot;font-size: 10px&quot;&gt;&lt;/div&gt;" style="shape=hexagon;perimeter=hexagonPerimeter2;whiteSpace=wrap;html=1;fixedSize=1;rounded=1;fontFamily=Consolas;arcSize=0;fontSize=10;" parent="1" vertex="1">
          <mxGeometry x="488" y="1410" width="120" height="40" as="geometry" />
        </mxCell>
        <mxCell id="s9nZQQE5in6NOD8knwnm-5" style="edgeStyle=orthogonalEdgeStyle;rounded=0;orthogonalLoop=1;jettySize=auto;html=1;entryX=0.523;entryY=-0.008;entryDx=0;entryDy=0;entryPerimeter=0;fontFamily=Consolas;fontSize=10;" edge="1" parent="1" source="fMAf0AQXnJGZOiMmoHYG-102" target="s9nZQQE5in6NOD8knwnm-1">
          <mxGeometry relative="1" as="geometry">
            <Array as="points">
              <mxPoint x="550" y="1530" />
            </Array>
          </mxGeometry>
        </mxCell>
        <mxCell id="fMAf0AQXnJGZOiMmoHYG-102" value="&lt;div&gt;Вывод:&lt;/div&gt;&lt;div&gt;_A[i][j]&lt;br&gt;&lt;/div&gt;" style="shape=parallelogram;perimeter=parallelogramPerimeter;whiteSpace=wrap;html=1;fixedSize=1;rounded=1;fontFamily=Consolas;fontSize=10;arcSize=0;" parent="1" vertex="1">
          <mxGeometry x="488" y="1470" width="120" height="60" as="geometry" />
        </mxCell>
        <mxCell id="fMAf0AQXnJGZOiMmoHYG-106" value="" style="edgeStyle=orthogonalEdgeStyle;rounded=0;orthogonalLoop=1;jettySize=auto;html=1;fontFamily=Consolas;fontSize=10;" parent="1" source="fMAf0AQXnJGZOiMmoHYG-104" target="fMAf0AQXnJGZOiMmoHYG-105" edge="1">
          <mxGeometry relative="1" as="geometry" />
        </mxCell>
        <mxCell id="fMAf0AQXnJGZOiMmoHYG-104" value="Начало" style="rounded=1;whiteSpace=wrap;html=1;arcSize=50;fontFamily=Consolas;fontSize=10;" parent="1" vertex="1">
          <mxGeometry x="-576" y="1180" width="120" height="40" as="geometry" />
        </mxCell>
        <mxCell id="fMAf0AQXnJGZOiMmoHYG-108" value="" style="edgeStyle=orthogonalEdgeStyle;rounded=0;orthogonalLoop=1;jettySize=auto;html=1;fontFamily=Consolas;fontSize=10;" parent="1" source="fMAf0AQXnJGZOiMmoHYG-105" target="fMAf0AQXnJGZOiMmoHYG-107" edge="1">
          <mxGeometry relative="1" as="geometry" />
        </mxCell>
        <mxCell id="fMAf0AQXnJGZOiMmoHYG-105" value="&lt;div&gt;M, N, a[M][N], ColumnIndices[N], bIsThereAnyZero := false,&lt;/div&gt;&lt;div&gt;RESIDUE := 10&lt;br&gt;&lt;/div&gt;" style="shape=parallelogram;perimeter=parallelogramPerimeter;whiteSpace=wrap;html=1;fixedSize=1;rounded=1;fontFamily=Consolas;fontSize=10;arcSize=0;" parent="1" vertex="1">
          <mxGeometry x="-576" y="1250" width="120" height="60" as="geometry" />
        </mxCell>
        <mxCell id="fMAf0AQXnJGZOiMmoHYG-110" value="" style="edgeStyle=orthogonalEdgeStyle;rounded=0;orthogonalLoop=1;jettySize=auto;html=1;fontFamily=Consolas;fontSize=10;" parent="1" source="fMAf0AQXnJGZOiMmoHYG-107" target="fMAf0AQXnJGZOiMmoHYG-109" edge="1">
          <mxGeometry relative="1" as="geometry" />
        </mxCell>
        <mxCell id="fMAf0AQXnJGZOiMmoHYG-119" style="edgeStyle=orthogonalEdgeStyle;rounded=0;orthogonalLoop=1;jettySize=auto;html=1;exitX=1;exitY=0.5;exitDx=0;exitDy=0;fontFamily=Consolas;fontSize=10;entryX=0.5;entryY=-0.01;entryDx=0;entryDy=0;entryPerimeter=0;" parent="1" source="fMAf0AQXnJGZOiMmoHYG-107" target="fMAf0AQXnJGZOiMmoHYG-122" edge="1">
          <mxGeometry relative="1" as="geometry">
            <mxPoint x="-519" y="1680" as="targetPoint" />
            <Array as="points">
              <mxPoint x="-260" y="1360" />
              <mxPoint x="-260" y="1670" />
              <mxPoint x="-518" y="1670" />
            </Array>
          </mxGeometry>
        </mxCell>
        <mxCell id="fMAf0AQXnJGZOiMmoHYG-107" value="i := 0; i &amp;lt; N" style="shape=hexagon;perimeter=hexagonPerimeter2;whiteSpace=wrap;html=1;fixedSize=1;rounded=1;fontFamily=Consolas;fontSize=10;arcSize=0;" parent="1" vertex="1">
          <mxGeometry x="-576" y="1340" width="120" height="40" as="geometry" />
        </mxCell>
        <mxCell id="fMAf0AQXnJGZOiMmoHYG-112" value="" style="edgeStyle=orthogonalEdgeStyle;rounded=0;orthogonalLoop=1;jettySize=auto;html=1;fontFamily=Consolas;fontSize=10;" parent="1" source="fMAf0AQXnJGZOiMmoHYG-109" target="fMAf0AQXnJGZOiMmoHYG-111" edge="1">
          <mxGeometry relative="1" as="geometry" />
        </mxCell>
        <mxCell id="fMAf0AQXnJGZOiMmoHYG-118" style="edgeStyle=orthogonalEdgeStyle;rounded=0;orthogonalLoop=1;jettySize=auto;html=1;fontFamily=Consolas;fontSize=10;entryX=0.028;entryY=0.465;entryDx=0;entryDy=0;entryPerimeter=0;" parent="1" source="fMAf0AQXnJGZOiMmoHYG-109" target="fMAf0AQXnJGZOiMmoHYG-107" edge="1">
          <mxGeometry relative="1" as="geometry">
            <mxPoint x="-620" y="1430" as="targetPoint" />
            <Array as="points">
              <mxPoint x="-280" y="1430" />
              <mxPoint x="-280" y="1660" />
              <mxPoint x="-640" y="1660" />
              <mxPoint x="-640" y="1359" />
              <mxPoint x="-620" y="1359" />
            </Array>
          </mxGeometry>
        </mxCell>
        <mxCell id="fMAf0AQXnJGZOiMmoHYG-109" value="j := 0; j &amp;lt; M" style="shape=hexagon;perimeter=hexagonPerimeter2;whiteSpace=wrap;html=1;fixedSize=1;rounded=1;fontFamily=Consolas;fontSize=10;arcSize=0;" parent="1" vertex="1">
          <mxGeometry x="-576" y="1410" width="120" height="40" as="geometry" />
        </mxCell>
        <mxCell id="fMAf0AQXnJGZOiMmoHYG-114" value="" style="edgeStyle=orthogonalEdgeStyle;rounded=0;orthogonalLoop=1;jettySize=auto;html=1;fontFamily=Consolas;fontSize=10;" parent="1" source="fMAf0AQXnJGZOiMmoHYG-111" target="fMAf0AQXnJGZOiMmoHYG-113" edge="1">
          <mxGeometry relative="1" as="geometry" />
        </mxCell>
        <mxCell id="fMAf0AQXnJGZOiMmoHYG-111" value="A[i][j] := rand() % RESIDUE" style="shape=process;whiteSpace=wrap;html=1;backgroundOutline=1;rounded=1;fontFamily=Consolas;fontSize=10;arcSize=0;" parent="1" vertex="1">
          <mxGeometry x="-576" y="1480" width="120" height="60" as="geometry" />
        </mxCell>
        <mxCell id="fMAf0AQXnJGZOiMmoHYG-116" value="Да" style="edgeStyle=orthogonalEdgeStyle;rounded=0;orthogonalLoop=1;jettySize=auto;html=1;fontFamily=Consolas;fontSize=10;" parent="1" source="fMAf0AQXnJGZOiMmoHYG-113" target="fMAf0AQXnJGZOiMmoHYG-115" edge="1">
          <mxGeometry relative="1" as="geometry" />
        </mxCell>
        <mxCell id="fMAf0AQXnJGZOiMmoHYG-117" value="Нет" style="edgeStyle=orthogonalEdgeStyle;rounded=0;orthogonalLoop=1;jettySize=auto;html=1;entryX=0;entryY=0.5;entryDx=0;entryDy=0;fontFamily=Consolas;fontSize=10;" parent="1" source="fMAf0AQXnJGZOiMmoHYG-113" target="fMAf0AQXnJGZOiMmoHYG-109" edge="1">
          <mxGeometry x="-0.8571" relative="1" as="geometry">
            <Array as="points">
              <mxPoint x="-620" y="1610" />
              <mxPoint x="-620" y="1430" />
            </Array>
            <mxPoint as="offset" />
          </mxGeometry>
        </mxCell>
        <mxCell id="fMAf0AQXnJGZOiMmoHYG-113" value="a[i][j] = 0" style="rhombus;whiteSpace=wrap;html=1;rounded=1;fontFamily=Consolas;fontSize=10;arcSize=0;" parent="1" vertex="1">
          <mxGeometry x="-592" y="1570" width="152" height="80" as="geometry" />
        </mxCell>
        <mxCell id="fMAf0AQXnJGZOiMmoHYG-115" value="&lt;div&gt;&amp;nbsp;ColumnIndices[j] :=&amp;nbsp; ColumnIndices[j] + 1;&lt;/div&gt;&lt;div&gt;bIsThereAnyZero = true&lt;br&gt;&lt;/div&gt;" style="whiteSpace=wrap;html=1;rounded=1;fontFamily=Consolas;fontSize=10;arcSize=0;" parent="1" vertex="1">
          <mxGeometry x="-410" y="1580" width="120" height="60" as="geometry" />
        </mxCell>
        <mxCell id="fMAf0AQXnJGZOiMmoHYG-124" value="Да" style="edgeStyle=orthogonalEdgeStyle;rounded=0;orthogonalLoop=1;jettySize=auto;html=1;fontFamily=Consolas;fontSize=10;" parent="1" source="fMAf0AQXnJGZOiMmoHYG-122" target="fMAf0AQXnJGZOiMmoHYG-123" edge="1">
          <mxGeometry relative="1" as="geometry" />
        </mxCell>
        <mxCell id="fMAf0AQXnJGZOiMmoHYG-126" value="Нет" style="edgeStyle=orthogonalEdgeStyle;rounded=0;orthogonalLoop=1;jettySize=auto;html=1;fontFamily=Consolas;fontSize=10;" parent="1" source="fMAf0AQXnJGZOiMmoHYG-122" target="fMAf0AQXnJGZOiMmoHYG-125" edge="1">
          <mxGeometry relative="1" as="geometry" />
        </mxCell>
        <mxCell id="fMAf0AQXnJGZOiMmoHYG-122" value="bIsThereAnyZero = 0" style="rhombus;whiteSpace=wrap;html=1;rounded=1;fontFamily=Consolas;fontSize=10;arcSize=0;" parent="1" vertex="1">
          <mxGeometry x="-594" y="1690" width="152" height="80" as="geometry" />
        </mxCell>
        <mxCell id="fMAf0AQXnJGZOiMmoHYG-128" value="" style="edgeStyle=orthogonalEdgeStyle;rounded=0;orthogonalLoop=1;jettySize=auto;html=1;fontFamily=Consolas;fontSize=10;" parent="1" source="fMAf0AQXnJGZOiMmoHYG-123" target="fMAf0AQXnJGZOiMmoHYG-127" edge="1">
          <mxGeometry relative="1" as="geometry" />
        </mxCell>
        <mxCell id="fMAf0AQXnJGZOiMmoHYG-123" value="&lt;div&gt;MaxFirst = MaxElementIndexFirst(&lt;/div&gt;&lt;div&gt;ColumnIndices, N)&lt;/div&gt;" style="shape=process;whiteSpace=wrap;html=1;backgroundOutline=1;rounded=1;fontFamily=Consolas;fontSize=10;arcSize=0;" parent="1" vertex="1">
          <mxGeometry x="-346" y="1700" width="166" height="60" as="geometry" />
        </mxCell>
        <mxCell id="fMAf0AQXnJGZOiMmoHYG-150" style="edgeStyle=orthogonalEdgeStyle;rounded=0;orthogonalLoop=1;jettySize=auto;html=1;fontFamily=Consolas;fontSize=10;" parent="1" source="fMAf0AQXnJGZOiMmoHYG-125" target="fMAf0AQXnJGZOiMmoHYG-151" edge="1">
          <mxGeometry relative="1" as="geometry">
            <mxPoint x="-750.0000000000001" y="1790" as="targetPoint" />
          </mxGeometry>
        </mxCell>
        <mxCell id="fMAf0AQXnJGZOiMmoHYG-125" value="&quot;Нули в массиве отсутствуют&quot;" style="shape=parallelogram;perimeter=parallelogramPerimeter;whiteSpace=wrap;html=1;fixedSize=1;rounded=1;fontFamily=Consolas;fontSize=10;arcSize=0;" parent="1" vertex="1">
          <mxGeometry x="-810" y="1700" width="120" height="60" as="geometry" />
        </mxCell>
        <mxCell id="fMAf0AQXnJGZOiMmoHYG-130" value="" style="edgeStyle=orthogonalEdgeStyle;rounded=0;orthogonalLoop=1;jettySize=auto;html=1;fontFamily=Consolas;fontSize=10;entryX=0.5;entryY=-0.005;entryDx=0;entryDy=0;entryPerimeter=0;" parent="1" source="fMAf0AQXnJGZOiMmoHYG-127" target="fMAf0AQXnJGZOiMmoHYG-131" edge="1">
          <mxGeometry relative="1" as="geometry">
            <mxPoint x="-262.9999999999998" y="1910" as="targetPoint" />
          </mxGeometry>
        </mxCell>
        <mxCell id="fMAf0AQXnJGZOiMmoHYG-127" value="&lt;div&gt;MaxLast = MaxElementIndexLast(&lt;/div&gt;&lt;div&gt;ColumnIndices, N)&lt;/div&gt;" style="shape=process;whiteSpace=wrap;html=1;backgroundOutline=1;rounded=1;fontFamily=Consolas;fontSize=10;arcSize=0;" parent="1" vertex="1">
          <mxGeometry x="-346" y="1780" width="166" height="60" as="geometry" />
        </mxCell>
        <mxCell id="fMAf0AQXnJGZOiMmoHYG-133" value="Да" style="edgeStyle=orthogonalEdgeStyle;rounded=0;orthogonalLoop=1;jettySize=auto;html=1;fontFamily=Consolas;fontSize=10;" parent="1" source="fMAf0AQXnJGZOiMmoHYG-131" target="fMAf0AQXnJGZOiMmoHYG-132" edge="1">
          <mxGeometry relative="1" as="geometry" />
        </mxCell>
        <mxCell id="fMAf0AQXnJGZOiMmoHYG-141" value="Нет" style="edgeStyle=orthogonalEdgeStyle;rounded=0;orthogonalLoop=1;jettySize=auto;html=1;fontFamily=Consolas;fontSize=10;" parent="1" source="fMAf0AQXnJGZOiMmoHYG-131" target="fMAf0AQXnJGZOiMmoHYG-140" edge="1">
          <mxGeometry relative="1" as="geometry" />
        </mxCell>
        <mxCell id="fMAf0AQXnJGZOiMmoHYG-131" value="MaxFirst != MaxLast" style="rhombus;whiteSpace=wrap;html=1;rounded=1;fontFamily=Consolas;fontSize=10;arcSize=0;" parent="1" vertex="1">
          <mxGeometry x="-339" y="1860" width="152" height="80" as="geometry" />
        </mxCell>
        <mxCell id="fMAf0AQXnJGZOiMmoHYG-135" value="" style="edgeStyle=orthogonalEdgeStyle;rounded=0;orthogonalLoop=1;jettySize=auto;html=1;fontFamily=Consolas;fontSize=10;" parent="1" source="fMAf0AQXnJGZOiMmoHYG-132" target="fMAf0AQXnJGZOiMmoHYG-134" edge="1">
          <mxGeometry relative="1" as="geometry" />
        </mxCell>
        <mxCell id="fMAf0AQXnJGZOiMmoHYG-132" value="&lt;div&gt;Вывод:&lt;br&gt;&lt;/div&gt;&lt;div&gt;MaxFirst,&lt;/div&gt;&lt;div&gt;ColumnIndices[MaxFirst],&lt;/div&gt;&lt;div&gt;MaxLast,&lt;/div&gt;&lt;div&gt;ColumnIndices[MaxLast]&lt;br&gt;&lt;/div&gt;" style="shape=parallelogram;perimeter=parallelogramPerimeter;whiteSpace=wrap;html=1;fixedSize=1;rounded=1;fontFamily=Consolas;fontSize=10;arcSize=0;" parent="1" vertex="1">
          <mxGeometry x="-336" y="1970" width="146" height="60" as="geometry" />
        </mxCell>
        <mxCell id="fMAf0AQXnJGZOiMmoHYG-137" value="" style="edgeStyle=orthogonalEdgeStyle;rounded=0;orthogonalLoop=1;jettySize=auto;html=1;fontFamily=Consolas;fontSize=10;" parent="1" source="fMAf0AQXnJGZOiMmoHYG-134" target="fMAf0AQXnJGZOiMmoHYG-136" edge="1">
          <mxGeometry relative="1" as="geometry" />
        </mxCell>
        <mxCell id="fMAf0AQXnJGZOiMmoHYG-134" value="&lt;div&gt;BackwardsSwapColumn(&lt;/div&gt;&lt;div&gt;a, M, N, MaxFirst)&lt;/div&gt;" style="shape=process;whiteSpace=wrap;html=1;backgroundOutline=1;rounded=1;fontFamily=Consolas;fontSize=10;arcSize=0;" parent="1" vertex="1">
          <mxGeometry x="-346" y="2050" width="166" height="60" as="geometry" />
        </mxCell>
        <mxCell id="fMAf0AQXnJGZOiMmoHYG-139" value="" style="edgeStyle=orthogonalEdgeStyle;rounded=0;orthogonalLoop=1;jettySize=auto;html=1;fontFamily=Consolas;fontSize=10;" parent="1" source="fMAf0AQXnJGZOiMmoHYG-136" target="fMAf0AQXnJGZOiMmoHYG-138" edge="1">
          <mxGeometry relative="1" as="geometry" />
        </mxCell>
        <mxCell id="fMAf0AQXnJGZOiMmoHYG-136" value="&lt;div&gt;BackwardsSwapColumn(&lt;/div&gt;&lt;div&gt;a, M, N, MaxLast)&lt;/div&gt;" style="shape=process;whiteSpace=wrap;html=1;backgroundOutline=1;rounded=1;fontFamily=Consolas;fontSize=10;arcSize=0;" parent="1" vertex="1">
          <mxGeometry x="-346" y="2130" width="166" height="60" as="geometry" />
        </mxCell>
        <mxCell id="fMAf0AQXnJGZOiMmoHYG-149" style="edgeStyle=orthogonalEdgeStyle;rounded=0;orthogonalLoop=1;jettySize=auto;html=1;entryX=1;entryY=0.5;entryDx=0;entryDy=0;fontFamily=Consolas;fontSize=10;" parent="1" source="fMAf0AQXnJGZOiMmoHYG-138" target="fMAf0AQXnJGZOiMmoHYG-148" edge="1">
          <mxGeometry relative="1" as="geometry" />
        </mxCell>
        <mxCell id="fMAf0AQXnJGZOiMmoHYG-138" value="&quot;Массив с обратным порядком элементов в столбцах:&quot;" style="shape=parallelogram;perimeter=parallelogramPerimeter;whiteSpace=wrap;html=1;fixedSize=1;rounded=1;fontFamily=Consolas;fontSize=10;arcSize=0;" parent="1" vertex="1">
          <mxGeometry x="-323" y="2210" width="120" height="60" as="geometry" />
        </mxCell>
        <mxCell id="fMAf0AQXnJGZOiMmoHYG-143" value="" style="edgeStyle=orthogonalEdgeStyle;rounded=0;orthogonalLoop=1;jettySize=auto;html=1;fontFamily=Consolas;fontSize=10;" parent="1" source="fMAf0AQXnJGZOiMmoHYG-140" target="fMAf0AQXnJGZOiMmoHYG-142" edge="1">
          <mxGeometry relative="1" as="geometry" />
        </mxCell>
        <mxCell id="fMAf0AQXnJGZOiMmoHYG-140" value="&lt;div&gt;MaxFirst,&lt;/div&gt;&lt;div&gt;ColumnIndices[MaxFirst]&lt;br&gt;&lt;/div&gt;" style="shape=parallelogram;perimeter=parallelogramPerimeter;whiteSpace=wrap;html=1;fixedSize=1;rounded=1;fontFamily=Consolas;fontSize=10;arcSize=0;" parent="1" vertex="1">
          <mxGeometry x="-516" y="1870" width="150" height="60" as="geometry" />
        </mxCell>
        <mxCell id="fMAf0AQXnJGZOiMmoHYG-145" value="" style="edgeStyle=orthogonalEdgeStyle;rounded=0;orthogonalLoop=1;jettySize=auto;html=1;fontFamily=Consolas;fontSize=10;" parent="1" source="fMAf0AQXnJGZOiMmoHYG-142" target="fMAf0AQXnJGZOiMmoHYG-144" edge="1">
          <mxGeometry relative="1" as="geometry" />
        </mxCell>
        <mxCell id="fMAf0AQXnJGZOiMmoHYG-142" value="&lt;div&gt;BackwardsSwapColumn(&lt;/div&gt;&lt;div&gt;a, M, N, MaxFirst)&lt;/div&gt;" style="shape=process;whiteSpace=wrap;html=1;backgroundOutline=1;rounded=1;fontFamily=Consolas;fontSize=10;arcSize=0;" parent="1" vertex="1">
          <mxGeometry x="-512" y="1950" width="142" height="60" as="geometry" />
        </mxCell>
        <mxCell id="fMAf0AQXnJGZOiMmoHYG-147" value="" style="edgeStyle=orthogonalEdgeStyle;rounded=0;orthogonalLoop=1;jettySize=auto;html=1;fontFamily=Consolas;fontSize=10;" parent="1" source="fMAf0AQXnJGZOiMmoHYG-144" target="fMAf0AQXnJGZOiMmoHYG-148" edge="1">
          <mxGeometry relative="1" as="geometry">
            <mxPoint x="-441" y="2170" as="targetPoint" />
          </mxGeometry>
        </mxCell>
        <mxCell id="fMAf0AQXnJGZOiMmoHYG-144" value="&quot;Массив с обратным порядком элементов в столбце:&quot;" style="shape=parallelogram;perimeter=parallelogramPerimeter;whiteSpace=wrap;html=1;fixedSize=1;rounded=1;fontFamily=Consolas;fontSize=10;arcSize=0;" parent="1" vertex="1">
          <mxGeometry x="-501" y="2040" width="120" height="60" as="geometry" />
        </mxCell>
        <mxCell id="fMAf0AQXnJGZOiMmoHYG-148" value="A" style="ellipse;whiteSpace=wrap;html=1;aspect=fixed;" parent="1" vertex="1">
          <mxGeometry x="-461" y="2150" width="40" height="40" as="geometry" />
        </mxCell>
        <mxCell id="fMAf0AQXnJGZOiMmoHYG-151" value="B" style="ellipse;whiteSpace=wrap;html=1;aspect=fixed;" parent="1" vertex="1">
          <mxGeometry x="-770" y="1790" width="40" height="40" as="geometry" />
        </mxCell>
        <mxCell id="fMAf0AQXnJGZOiMmoHYG-154" value="" style="edgeStyle=orthogonalEdgeStyle;rounded=0;orthogonalLoop=1;jettySize=auto;html=1;fontFamily=Consolas;fontSize=10;" parent="1" source="fMAf0AQXnJGZOiMmoHYG-152" target="fMAf0AQXnJGZOiMmoHYG-153" edge="1">
          <mxGeometry relative="1" as="geometry" />
        </mxCell>
        <mxCell id="fMAf0AQXnJGZOiMmoHYG-152" value="A" style="ellipse;whiteSpace=wrap;html=1;aspect=fixed;" parent="1" vertex="1">
          <mxGeometry x="-536" y="2370" width="40" height="40" as="geometry" />
        </mxCell>
        <mxCell id="fMAf0AQXnJGZOiMmoHYG-156" style="edgeStyle=orthogonalEdgeStyle;rounded=0;orthogonalLoop=1;jettySize=auto;html=1;entryX=0.5;entryY=0;entryDx=0;entryDy=0;fontFamily=Consolas;fontSize=10;" parent="1" source="fMAf0AQXnJGZOiMmoHYG-153" target="fMAf0AQXnJGZOiMmoHYG-155" edge="1">
          <mxGeometry relative="1" as="geometry" />
        </mxCell>
        <mxCell id="fMAf0AQXnJGZOiMmoHYG-153" value="i := 0; i &amp;lt; N" style="shape=hexagon;perimeter=hexagonPerimeter2;whiteSpace=wrap;html=1;fixedSize=1;" parent="1" vertex="1">
          <mxGeometry x="-576" y="2440" width="120" height="40" as="geometry" />
        </mxCell>
        <mxCell id="fMAf0AQXnJGZOiMmoHYG-158" value="Да" style="edgeStyle=orthogonalEdgeStyle;rounded=0;orthogonalLoop=1;jettySize=auto;html=1;fontFamily=Consolas;fontSize=10;" parent="1" source="fMAf0AQXnJGZOiMmoHYG-155" target="fMAf0AQXnJGZOiMmoHYG-157" edge="1">
          <mxGeometry relative="1" as="geometry" />
        </mxCell>
        <mxCell id="fMAf0AQXnJGZOiMmoHYG-160" value="Нет" style="edgeStyle=orthogonalEdgeStyle;rounded=0;orthogonalLoop=1;jettySize=auto;html=1;fontFamily=Consolas;fontSize=10;" parent="1" source="fMAf0AQXnJGZOiMmoHYG-155" target="fMAf0AQXnJGZOiMmoHYG-159" edge="1">
          <mxGeometry relative="1" as="geometry" />
        </mxCell>
        <mxCell id="fMAf0AQXnJGZOiMmoHYG-155" value="&lt;div&gt;i = MaxFirst ||&lt;/div&gt;&lt;div&gt;i = MaxLast&lt;/div&gt;" style="rhombus;whiteSpace=wrap;html=1;rounded=1;fontFamily=Consolas;fontSize=10;arcSize=0;" parent="1" vertex="1">
          <mxGeometry x="-592" y="2500" width="152" height="80" as="geometry" />
        </mxCell>
        <mxCell id="fMAf0AQXnJGZOiMmoHYG-162" style="edgeStyle=orthogonalEdgeStyle;rounded=0;orthogonalLoop=1;jettySize=auto;html=1;fontFamily=Consolas;fontSize=10;" parent="1" source="fMAf0AQXnJGZOiMmoHYG-157" edge="1">
          <mxGeometry relative="1" as="geometry">
            <mxPoint x="-520" y="2600" as="targetPoint" />
            <Array as="points">
              <mxPoint x="-284" y="2600" />
            </Array>
          </mxGeometry>
        </mxCell>
        <mxCell id="fMAf0AQXnJGZOiMmoHYG-157" value="&lt;div&gt;Вывод:&lt;br&gt;&lt;/div&gt;&lt;div&gt;&quot;*&amp;nbsp;&amp;nbsp;&amp;nbsp; &quot;&lt;/div&gt;" style="shape=parallelogram;perimeter=parallelogramPerimeter;whiteSpace=wrap;html=1;fixedSize=1;rounded=1;fontFamily=Consolas;fontSize=10;arcSize=0;" parent="1" vertex="1">
          <mxGeometry x="-344" y="2510" width="120" height="60" as="geometry" />
        </mxCell>
        <mxCell id="fMAf0AQXnJGZOiMmoHYG-161" style="edgeStyle=orthogonalEdgeStyle;rounded=0;orthogonalLoop=1;jettySize=auto;html=1;fontFamily=Consolas;fontSize=10;" parent="1" source="fMAf0AQXnJGZOiMmoHYG-159" target="fMAf0AQXnJGZOiMmoHYG-163" edge="1">
          <mxGeometry relative="1" as="geometry">
            <mxPoint x="-520" y="2630" as="targetPoint" />
            <Array as="points">
              <mxPoint x="-748" y="2600" />
              <mxPoint x="-520" y="2600" />
            </Array>
          </mxGeometry>
        </mxCell>
        <mxCell id="fMAf0AQXnJGZOiMmoHYG-159" value="&lt;div&gt;Вывод:&lt;br&gt;&lt;/div&gt;&lt;div&gt;&quot;&amp;nbsp;&amp;nbsp;&amp;nbsp;&amp;nbsp; &quot;&lt;/div&gt;" style="shape=parallelogram;perimeter=parallelogramPerimeter;whiteSpace=wrap;html=1;fixedSize=1;rounded=1;fontFamily=Consolas;fontSize=10;arcSize=0;" parent="1" vertex="1">
          <mxGeometry x="-808" y="2510" width="120" height="60" as="geometry" />
        </mxCell>
        <mxCell id="fMAf0AQXnJGZOiMmoHYG-165" style="edgeStyle=orthogonalEdgeStyle;rounded=0;orthogonalLoop=1;jettySize=auto;html=1;fontFamily=Consolas;fontSize=10;entryX=0.5;entryY=0;entryDx=0;entryDy=0;" parent="1" source="fMAf0AQXnJGZOiMmoHYG-163" target="fMAf0AQXnJGZOiMmoHYG-166" edge="1">
          <mxGeometry relative="1" as="geometry">
            <mxPoint x="-516" y="2730" as="targetPoint" />
          </mxGeometry>
        </mxCell>
        <mxCell id="fMAf0AQXnJGZOiMmoHYG-163" value="&lt;div style=&quot;font-size: 10px;&quot;&gt;PrintMatrix(&lt;/div&gt;&lt;div style=&quot;font-size: 10px;&quot;&gt;a, M, N)&lt;/div&gt;" style="shape=process;whiteSpace=wrap;html=1;backgroundOutline=1;fontSize=10;" parent="1" vertex="1">
          <mxGeometry x="-576" y="2630" width="120" height="60" as="geometry" />
        </mxCell>
        <mxCell id="fMAf0AQXnJGZOiMmoHYG-167" style="edgeStyle=orthogonalEdgeStyle;rounded=0;orthogonalLoop=1;jettySize=auto;html=1;entryX=0;entryY=0.5;entryDx=0;entryDy=0;fontFamily=Consolas;fontSize=10;" parent="1" source="fMAf0AQXnJGZOiMmoHYG-164" target="fMAf0AQXnJGZOiMmoHYG-166" edge="1">
          <mxGeometry relative="1" as="geometry" />
        </mxCell>
        <mxCell id="fMAf0AQXnJGZOiMmoHYG-164" value="B" style="ellipse;whiteSpace=wrap;html=1;aspect=fixed;" parent="1" vertex="1">
          <mxGeometry x="-770" y="2720" width="40" height="40" as="geometry" />
        </mxCell>
        <mxCell id="fMAf0AQXnJGZOiMmoHYG-166" value="Конец" style="rounded=1;whiteSpace=wrap;html=1;arcSize=50;fontFamily=Consolas;fontSize=10;" parent="1" vertex="1">
          <mxGeometry x="-576" y="2720" width="120" height="40" as="geometry" />
        </mxCell>
        <mxCell id="s9nZQQE5in6NOD8knwnm-1" value="&lt;div&gt;Вывод:&lt;/div&gt;&lt;div&gt;&quot;&amp;nbsp; &quot;&lt;br&gt;&lt;/div&gt;" style="shape=parallelogram;perimeter=parallelogramPerimeter;whiteSpace=wrap;html=1;fixedSize=1;rounded=1;fontFamily=Consolas;fontSize=10;arcSize=0;" vertex="1" parent="1">
          <mxGeometry x="487" y="1550" width="120" height="60" as="geometry" />
        </mxCell>
        <mxCell id="s9nZQQE5in6NOD8knwnm-7" style="edgeStyle=orthogonalEdgeStyle;rounded=0;orthogonalLoop=1;jettySize=auto;html=1;entryX=0.5;entryY=0;entryDx=0;entryDy=0;fontFamily=Consolas;fontSize=10;" edge="1" parent="1" source="s9nZQQE5in6NOD8knwnm-6" target="fMAf0AQXnJGZOiMmoHYG-90">
          <mxGeometry relative="1" as="geometry" />
        </mxCell>
        <mxCell id="s9nZQQE5in6NOD8knwnm-6" value="&lt;div&gt;Вывод:&lt;/div&gt;&lt;div&gt;&quot;\n&quot;&lt;br&gt;&lt;/div&gt;" style="shape=parallelogram;perimeter=parallelogramPerimeter;whiteSpace=wrap;html=1;fixedSize=1;rounded=1;fontFamily=Consolas;fontSize=10;arcSize=0;" vertex="1" parent="1">
          <mxGeometry x="487" y="1660" width="120" height="60" as="geometry" />
        </mxCell>
        <mxCell id="s9nZQQE5in6NOD8knwnm-9" style="edgeStyle=orthogonalEdgeStyle;rounded=0;orthogonalLoop=1;jettySize=auto;html=1;entryX=0.5;entryY=0;entryDx=0;entryDy=0;fontFamily=Consolas;fontSize=10;" edge="1" parent="1" source="fMAf0AQXnJGZOiMmoHYG-44" target="fMAf0AQXnJGZOiMmoHYG-53">
          <mxGeometry x="300" y="2360" as="geometry" />
        </mxCell>
        <mxCell id="fMAf0AQXnJGZOiMmoHYG-44" value="Начало" style="rounded=1;whiteSpace=wrap;html=1;arcSize=50;fontFamily=Consolas;fontSize=10;" parent="1" vertex="1">
          <mxGeometry x="358" y="2382" width="120" height="40" as="geometry" />
        </mxCell>
        <mxCell id="fMAf0AQXnJGZOiMmoHYG-53" value="&lt;div style=&quot;font-size: 10px&quot;&gt;**_A&lt;/div&gt;&lt;div style=&quot;font-size: 10px&quot;&gt;_M,_N&lt;/div&gt;&lt;div style=&quot;font-size: 10px&quot;&gt;_i,_j&lt;br style=&quot;font-size: 10px&quot;&gt;&lt;/div&gt;" style="shape=parallelogram;perimeter=parallelogramPerimeter;whiteSpace=wrap;html=1;fixedSize=1;rounded=1;fontFamily=Consolas;fontSize=10;arcSize=0;" parent="1" vertex="1">
          <mxGeometry x="358" y="2442" width="120" height="60" as="geometry" />
        </mxCell>
        <mxCell id="fMAf0AQXnJGZOiMmoHYG-57" value="" style="edgeStyle=orthogonalEdgeStyle;rounded=0;orthogonalLoop=1;jettySize=auto;html=1;fontFamily=Consolas;fontSize=10;" parent="1" source="fMAf0AQXnJGZOiMmoHYG-53" edge="1">
          <mxGeometry x="300" y="2360" as="geometry">
            <mxPoint x="418.03448275862047" y="2532" as="targetPoint" />
          </mxGeometry>
        </mxCell>
        <mxCell id="fMAf0AQXnJGZOiMmoHYG-60" value="Конец" style="rounded=1;whiteSpace=wrap;html=1;arcSize=50;fontFamily=Consolas;fontSize=10;" parent="1" vertex="1">
          <mxGeometry x="358" y="2870" width="120" height="40" as="geometry" />
        </mxCell>
        <mxCell id="fMAf0AQXnJGZOiMmoHYG-62" value="&lt;div style=&quot;font-size: 10px&quot;&gt;IsNeighbourAround4fools&lt;/div&gt;// Проверка на &quot;соседство&quot; элемента _A[_i[_j]&lt;br&gt;// 1 если &quot;сосед&quot; рядом, иначе 0" style="strokeWidth=2;html=1;shape=mxgraph.flowchart.annotation_2;align=left;labelPosition=right;pointerEvents=1;rounded=1;fontFamily=Consolas;fontSize=10;" parent="1" vertex="1">
          <mxGeometry x="490" y="2384" width="50" height="36" as="geometry" />
        </mxCell>
      </root>
    </mxGraphModel>
  </diagram>
</mxfile>
